PathFileType	4	(X/Y/Z)	TVC_26_BWA1_walk_RCNL2025.trc
DataRate	CameraRate	NumFrames	NumMarkers	Units	OrigDataRate	OrigDataStartFrame	OrigNumFrames
100	100	12	27	mm	100	183	728
Frame#	Time	R_Shoulder			L_Shoulder			C7			J_Notch			R_Elbow			L_Elbow			R_Wrist			L_Wrist			R_Asis			L_Asis			R_Psis			L_Psis			Sacral			Thoracic			Sternum			R_Thigh_Lateral			R_Knee_Lateral			R_Shank_Lateral			R_Ankle_Lateral			R_Heel			R_Toe			L_Thigh_Lateral			L_Knee_Lateral			L_Shank_Lateral			L_Ankle_Lateral			L_Heel			L_Toe		
		X1	Y1	Z1	X2	Y2	Z2	X3	Y3	Z3	X4	Y4	Z4	X5	Y5	Z5	X6	Y6	Z6	X7	Y7	Z7	X8	Y8	Z8	X9	Y9	Z9	X10	Y10	Z10	X11	Y11	Z11	X12	Y12	Z12	X13	Y13	Z13	X14	Y14	Z14	X15	Y15	Z15	X16	Y16	Z16	X17	Y17	Z17	X18	Y18	Z18	X19	Y19	Z19	X20	Y20	Z20	X21	Y21	Z21	X22	Y22	Z22	X23	Y23	Z23	X24	Y24	Z24	X25	Y25	Z25	X26	Y26	Z26	X27	Y27	Z27
183	1.82000000	-1241.628174	1363.799561	201.895874	-1269.312744	1368.742065	-115.250420	-1329.902588	1405.384644	57.599110	-1186.600342	1303.193481	48.328884	-1204.162231	1027.612793	325.975250	-1312.039551	1035.035400	-201.344193	-1069.927673	858.905212	327.884369	-1214.050842	834.409424	-177.079475	-1172.857422	962.156921	218.891876	-1169.166748	960.826965	-77.068810	-1385.251221	952.673279	136.575027	-1377.625000	945.389832	-9.607368	-1381.438110	949.031555	63.483829	-1390.740723	1131.990845	38.574230	-1134.241333	1073.092163	40.587196	-1244.057983	575.124573	263.444061	-1253.665405	449.708313	206.002609	-1317.629639	276.561096	258.258240	-1368.393188	77.197067	203.547455	-1407.754150	53.527611	160.913147	-1234.021729	44.867649	194.991425	-1103.072266	609.690063	-125.625893	-1109.764526	484.891479	-67.355057	-1113.713501	272.660919	-115.160728	-1138.136353	72.377846	-51.707779	-1184.356567	52.167904	1.485273	-1003.188782	49.694626	-43.240261
184	1.83000000	-1237.435303	1363.548706	199.669800	-1265.747192	1368.215698	-117.411118	-1326.124756	1404.832520	55.516922	-1182.719727	1302.913208	46.053509	-1201.715698	1027.823975	325.330139	-1308.030762	1034.575928	-203.784149	-1069.398193	857.560699	329.260880	-1209.774353	833.895752	-180.822998	-1167.912598	960.923523	216.167877	-1164.839478	961.085693	-79.467690	-1380.505005	951.952454	135.011566	-1373.128296	944.962219	-11.426744	-1376.816650	948.457336	61.792411	-1386.391968	1131.742554	36.308605	-1129.909058	1072.862183	38.409794	-1240.259155	574.379150	261.541443	-1248.530518	448.734772	204.692612	-1315.192871	276.907135	257.185577	-1367.993530	77.752113	202.968475	-1407.456421	54.441074	160.149567	-1233.654297	44.569668	194.921646	-1098.581177	609.321716	-127.817726	-1105.404907	484.527618	-68.839508	-1110.419556	271.470520	-115.902527	-1137.195923	72.148903	-52.012775	-1183.685547	52.535496	1.148820	-1002.300171	48.657555	-43.134411
185	1.84000000	-1233.257080	1363.289795	197.453476	-1262.171631	1367.702637	-119.558830	-1322.354126	1404.298950	53.439789	-1178.858765	1302.625122	43.795094	-1199.299927	1028.064209	324.720032	-1303.993164	1034.134399	-206.229935	-1068.868652	856.335602	330.681229	-1205.421509	833.347809	-184.592117	-1163.083008	959.680847	213.461151	-1160.569092	961.271179	-81.813316	-1375.849731	951.232544	133.395462	-1368.722290	944.548279	-13.269938	-1372.286011	947.890411	60.062762	-1382.107910	1131.468628	34.042934	-1125.641479	1072.605713	36.232738	-1236.108765	573.610596	259.660950	-1242.810303	447.707367	203.418442	-1312.378296	277.309509	256.070282	-1367.497070	78.539719	202.270752	-1407.232300	55.800880	159.057617	-1233.307617	44.271355	194.876785	-1095.048218	608.521301	-130.258148	-1101.254272	484.106018	-70.368629	-1107.243408	270.289001	-116.579399	-1136.294189	71.921005	-52.292824	-1183.069214	52.868984	0.836221	-1001.479736	47.729916	-43.035664
186	1.85000000	-1229.107666	1363.021118	195.254059	-1258.588379	1367.206421	-121.688644	-1318.598267	1403.786865	51.370995	-1175.022827	1302.330444	41.560345	-1196.918945	1028.328491	324.142548	-1299.931396	1033.713745	-208.675400	-1068.335144	855.229187	332.136398	-1200.998047	832.785797	-188.367043	-1158.397217	958.465271	210.798767	-1156.352173	961.369568	-84.086708	-1371.306396	950.516479	131.714066	-1364.411865	944.148193	-15.140310	-1367.859131	947.332336	58.286878	-1377.897461	1131.171143	31.782183	-1121.447632	1072.324829	34.060890	-1231.524780	572.819763	257.814026	-1236.465332	446.644257	202.190994	-1309.140381	277.789520	254.908844	-1366.879028	79.611755	201.439346	-1407.078247	57.691166	157.599686	-1232.999023	43.981720	194.847763	-1092.427124	607.370728	-132.877853	-1097.327271	483.636444	-71.927467	-1104.224121	269.145905	-117.189186	-1135.454956	71.695198	-52.537437	-1182.526489	53.165470	0.558097	-1000.745850	46.912807	-42.939716
187	1.86000000	-1225.000977	1362.742432	193.078430	-1255.000488	1366.730347	-123.795853	-1314.865234	1403.299438	49.313545	-1171.217041	1302.030151	39.355679	-1194.576904	1028.611816	323.594788	-1295.850098	1033.317261	-211.114639	-1067.794189	854.239655	333.616470	-1196.509705	832.241150	-192.126228	-1153.880859	957.312073	208.205856	-1152.187500	961.374268	-86.275101	-1366.894165	949.808167	129.958115	-1360.201050	943.762634	-17.039742	-1363.547607	946.785400	56.459187	-1373.769165	1130.852905	29.531311	-1117.336182	1072.022461	31.899067	-1226.434570	572.010803	256.011932	-1229.468872	445.567932	201.021408	-1305.438843	278.371857	253.700806	-1366.111084	81.018921	200.464005	-1406.972290	60.184525	155.757996	-1232.741455	43.709625	194.819946	-1090.594727	605.981201	-135.599380	-1093.627930	483.130463	-73.501663	-1101.407349	268.065125	-117.743912	-1134.696777	71.473541	-52.741135	-1182.066772	53.424850	0.321401	-1000.109375	46.206402	-42.847523
188	1.87000000	-1220.950439	1362.453857	190.933151	-1251.411377	1366.277954	-125.875961	-1311.163330	1402.839844	47.270237	-1167.446777	1301.726074	37.187172	-1192.277588	1028.909912	323.073303	-1291.754150	1032.947632	-213.542084	-1067.242371	853.364288	335.110703	-1191.961426	831.743530	-195.848068	-1149.556274	956.253418	205.704636	-1148.076050	961.286072	-88.372314	-1362.628296	949.112061	128.122269	-1356.092651	943.392639	-18.968470	-1359.360474	946.252350	54.576900	-1369.730225	1130.517090	27.295338	-1113.314941	1071.702026	29.752161	-1220.781616	571.193115	254.266495	-1221.808716	444.504791	199.921036	-1301.240479	279.082672	252.449997	-1365.160522	82.807228	199.340469	-1406.869507	63.334068	153.540421	-1232.540039	43.463928	194.772964	-1089.367310	604.474915	-138.344635	-1090.151733	482.600220	-75.078102	-1098.837402	267.063263	-118.264961	-1134.031982	71.258774	-52.903309	-1181.691406	53.648708	0.129527	-999.574707	45.608986	-42.763939
189	1.88000000	-1216.968628	1362.156738	188.824387	-1247.825195	1365.852295	-127.924683	-1307.501099	1402.410889	45.243660	-1163.716675	1301.420166	35.060543	-1190.024414	1029.218140	322.574341	-1287.648315	1032.608032	-215.952530	-1066.676697	852.599487	336.607635	-1187.361145	831.315857	-199.514084	-1145.440796	955.316772	203.313660	-1144.021118	961.112427	-90.378685	-1358.519775	948.432373	126.205391	-1352.088989	943.039734	-20.925028	-1355.304382	945.736053	52.640182	-1365.787476	1130.167603	25.079420	-1109.390747	1071.367554	27.625204	-1214.529785	570.382202	252.590790	-1213.489014	443.483643	198.901215	-1296.518921	279.947113	251.164856	-1363.990723	85.014084	198.071426	-1406.699585	67.166107	150.983887	-1232.388916	43.253963	194.681015	-1088.525635	602.969482	-141.042496	-1086.888428	482.057709	-76.645546	-1096.550659	266.148560	-118.777725	-1133.467529	71.053978	-53.027500	-1181.394531	53.839523	-0.017456	-999.140503	45.116318	-42.695862
190	1.89000000	-1213.067261	1361.852539	186.757904	-1244.245728	1365.456421	-129.937958	-1303.887085	1402.015259	43.236225	-1160.031250	1301.114746	32.981102	-1187.820435	1029.532471	322.093689	-1283.537720	1032.301025	-218.341141	-1066.094177	851.940765	338.095261	-1182.720520	830.974976	-203.110802	-1141.545776	954.522949	201.047134	-1140.028320	960.866577	-92.300491	-1354.574951	947.773132	124.210640	-1348.191284	942.705505	-22.906284	-1351.383118	945.239319	50.652178	-1361.946045	1129.808594	22.888899	-1105.568970	1071.023315	25.523436	-1207.666504	569.599487	250.999588	-1204.530273	442.534363	197.972610	-1291.255249	280.986725	249.858139	-1362.560181	87.664688	196.666443	-1406.366333	71.674515	148.154648	-1232.268921	43.090252	194.513657	-1087.843872	601.565430	-143.634567	-1083.824829	481.514252	-78.195114	-1094.570557	265.320953	-119.307549	-1133.005859	70.862076	-53.120342	-1181.165527	54.000233	-0.122471	-998.800964	44.721405	-42.650433
191	1.90000000	-1209.256592	1361.543945	184.738968	-1240.677612	1365.092896	-131.911911	-1300.329468	1401.655518	41.250198	-1156.394531	1300.812134	30.953743	-1185.667725	1029.849121	321.626831	-1279.427246	1032.029297	-220.703461	-1065.491882	851.383026	339.561188	-1178.052979	830.737976	-206.625114	-1137.876343	953.885132	198.914566	-1136.105347	960.566040	-94.149094	-1350.794922	947.137634	122.145134	-1344.399780	942.391785	-24.907557	-1347.597351	944.764709	48.618789	-1358.209961	1129.443970	20.729319	-1101.853882	1070.673584	23.452337	-1200.202271	568.871216	249.509201	-1194.970337	441.686035	197.144318	-1285.438110	282.216827	248.545914	-1360.824951	90.768875	195.141129	-1405.751709	76.818275	145.144485	-1232.145874	42.985291	194.237167	-1087.114990	600.338623	-146.078232	-1080.947144	480.980072	-79.720238	-1092.906128	264.572937	-119.877281	-1132.644287	70.685425	-53.190266	-1180.991699	54.134033	-0.190809	-998.546570	44.414639	-42.633537
192	1.91000000	-1205.545288	1361.233643	182.772415	-1237.125000	1364.763672	-133.842957	-1296.835938	1401.333740	39.287712	-1152.810059	1300.515015	28.982897	-1183.568237	1030.164429	321.169098	-1275.322144	1031.794922	-223.035400	-1064.867310	850.920380	340.992783	-1173.371765	830.620178	-210.041740	-1134.431152	953.408020	196.920486	-1132.261841	960.231079	-95.939667	-1347.176514	946.528625	120.019623	-1340.713501	942.100220	-26.922791	-1343.945007	944.314423	46.548416	-1354.581421	1129.077759	18.606411	-1098.247803	1070.322388	21.417618	-1192.167847	568.225769	248.136139	-1184.862183	440.965729	196.422882	-1279.065552	283.644775	247.246170	-1358.738525	94.318581	193.515472	-1404.725220	82.523598	142.061798	-1231.970459	42.954052	193.816025	-1086.171143	599.336243	-148.346954	-1078.242065	480.463470	-81.216194	-1091.551270	263.891418	-120.505341	-1132.376465	70.525551	-53.246166	-1180.859253	54.244343	-0.229279	-998.365479	44.184330	-42.648731
193	1.92000000	-1201.940186	1360.924927	180.862549	-1233.592041	1364.470459	-135.727707	-1293.413330	1401.052002	37.350800	-1149.280640	1300.225952	27.072521	-1181.522949	1030.474976	320.715576	-1271.227783	1031.599487	-225.333206	-1064.217590	850.546387	342.377380	-1168.693542	830.619812	-213.347824	-1131.202148	953.088074	195.064560	-1128.508667	959.882507	-97.689827	-1343.712402	945.948059	117.847961	-1337.130981	941.832458	-28.944792	-1340.421692	943.890259	44.451585	-1351.061157	1128.713623	16.526037	-1094.751587	1069.973511	19.425148	-1183.610107	567.691528	246.895248	-1174.273193	440.396942	195.811386	-1272.145508	285.268524	245.976746	-1356.254028	98.286064	191.811935	-1403.158325	88.691025	139.017929	-1231.677734	43.014133	193.214493	-1084.892822	598.577148	-150.428436	-1075.696411	479.970367	-82.679199	-1090.485596	263.259521	-121.203552	-1132.192383	70.383011	-53.296253	-1180.755127	54.334812	-0.245229	-998.244263	44.017494	-42.696659
194	1.93000000	-1198.446411	1360.620972	179.013168	-1230.082886	1364.214233	-137.563080	-1290.067749	1400.811646	35.441448	-1145.808472	1299.947388	25.226076	-1179.531982	1030.777344	320.261230	-1267.149292	1031.444092	-227.593369	-1063.540283	850.253906	343.702591	-1164.046509	830.710480	-216.536156	-1128.175415	952.913757	193.341782	-1124.857056	959.540405	-99.418152	-1340.391846	945.397461	115.646423	-1333.649414	941.589905	-30.965498	-1337.020630	943.493683	42.340463	-1347.648315	1128.354980	14.494087	-1091.364136	1069.630371	17.480867	-1174.586670	567.294312	245.797638	-1163.282593	439.999176	195.308777	-1264.697266	287.076294	244.753494	-1353.324585	102.622978	190.053406	-1400.941528	95.204750	136.112335	-1231.185669	43.185463	192.398285	-1083.209961	598.054565	-152.321213	-1073.295898	479.503845	-84.105331	-1089.672852	262.658539	-121.974663	-1132.079590	70.257538	-53.347164	-1180.668091	54.409416	-0.245793	-998.169250	43.900795	-42.775017
